<svg xmlns="http://www.w3.org/2000/svg" viewBox="0 0 53 53" id="BusinessTeam"><path d="M38.27 28.73a1 1 0 0 0 .24-.78l-.71-5.79a5.17 5.17 0 0 0-2.87-4l-3-1.48a.79.79 0 0 0-.22-.06 1 1 0 0 0-.17 0h-.37l-.17.08-.19.13c-1.3 1.36-2.55 2-3.71 1.9A4.29 4.29 0 0 1 24.27 17l-.09-.09-.18-.16-.15-.08-.19-.08h-.37a.76.76 0 0 0-.2.06.53.53 0 0 0-.12 0l-3 1.48a5.16 5.16 0 0 0-2.86 4L16.4 28a1 1 0 0 0 .25.78 1 1 0 0 0 .75.34h20.12a1 1 0 0 0 .75-.39zm-19.74-1.66.58-4.67a3.15 3.15 0 0 1 1.76-2.48l2.3-1.13a5.8 5.8 0 0 0 3.69 2 3.17 3.17 0 0 0 .43 0 6.53 6.53 0 0 0 4.39-2L34 19.92a3.18 3.18 0 0 1 1.77 2.48l.58 4.67zm2.65-17.36a6.58 6.58 0 0 0 6.28 6.54c3.47 0 6.29-3.08 6.29-6.87S30.93 2.5 27.46 2.5s-6.29 3.08-6.29 6.88a1.41 1.41 0 0 0 0 .2v.05c0 .05.01.05.01.08zm6.28 4.54a4.44 4.44 0 0 1-4.17-3.75 5.29 5.29 0 0 0 3.1-2 6.73 6.73 0 0 0 5.23 2 4.45 4.45 0 0 1-4.16 3.75zm0-9.75a4.48 4.48 0 0 1 4.21 4 4.73 4.73 0 0 1-4.5-2.27 1 1 0 0 0-1.82.12 4 4 0 0 1-2.1 2.05 4.48 4.48 0 0 1 4.21-3.9zm2.36 46h14.74a1 1 0 0 0 1-1.17l-.51-3a4.05 4.05 0 0 0-2.25-3.16L40.28 42a1 1 0 0 0-1.08.12 2.8 2.8 0 0 1-4.05 0 1 1 0 0 0-1.08-.12l-2.47 1.2a4 4 0 0 0-2.24 3.11l-.53 3a1 1 0 0 0 .23.81 1 1 0 0 0 .76.38zm1.51-3.9a2.08 2.08 0 0 1 1.15-1.6l1.93-1A4.58 4.58 0 0 0 40 44l1.95 1a2.09 2.09 0 0 1 1.15 1.66l.32 1.85H31zm5.86-5.11a5.1 5.1 0 0 0 4.87-5.3 5.1 5.1 0 0 0-4.87-5.3 5.11 5.11 0 0 0-4.88 5.3 5.11 5.11 0 0 0 4.88 5.3zm0-8.6a3.11 3.11 0 0 1 2.87 3.3 3.11 3.11 0 0 1-2.87 3.3 3.11 3.11 0 0 1-2.88-3.3 3.11 3.11 0 0 1 2.88-3.3zM7.46 49.33a1 1 0 0 0 1 1.17h14.72a1 1 0 0 0 .76-.36 1 1 0 0 0 .23-.81l-.52-3a4.06 4.06 0 0 0-2.24-3.16L18.9 42a1 1 0 0 0-1.07.12 2.81 2.81 0 0 1-4.06 0A1 1 0 0 0 12.7 42l-2.48 1.2A4 4 0 0 0 8 46.31zM10 46.6a2.05 2.05 0 0 1 1.1-1.6l1.9-1a4.58 4.58 0 0 0 5.54 0l1.95 1a2.09 2.09 0 0 1 1.15 1.66L22 48.5H9.63zm.94-10.41a5.1 5.1 0 0 0 4.87 5.3 5.11 5.11 0 0 0 4.88-5.3 5.11 5.11 0 0 0-4.88-5.3 5.1 5.1 0 0 0-4.87 5.3zm7.75 0a3.11 3.11 0 0 1-2.88 3.3 3.11 3.11 0 0 1-2.87-3.3 3.11 3.11 0 0 1 2.87-3.3 3.11 3.11 0 0 1 2.88 3.3zM30 39.35a1 1 0 0 0 .66.25 1 1 0 0 0 .75-.34 1 1 0 0 0-.09-1.41l-3.49-3.05v-3.88a1 1 0 0 0-2 0v3.91l-3.11 3.06a1 1 0 0 0 0 1.41 1 1 0 0 0 .71.3 1 1 0 0 0 .7-.28l2.75-2.7z" fill="#37ae51" class="color000000 svgShape"></path></svg>