<!-- // search.svg -->
<!-- import * as React from "react";

function SearchIcon(props) {
  return (
    <svg
      xmlns="http://www.w3.org/2000/svg"
      viewBox="0 0 24 24"
      width="30"
      height="30"
      {...props}
    >
      <g id="SVGRepo_bgCarrier" strokeWidth="0"></g>
      <g id="SVGRepo_tracerCarrier" strokeLinecap="round" strokeLinejoin="round"></g>
      <g id="SVGRepo_iconCarrier">
        <path d="M14.9536 14.9458L21 21M17 10C17 13.866 13.866 17 10 17C6.13401 17 3 13.866 3 10C3 6.13401 6.13401 3 10 3C13.866 3 17 6.13401 17 10Z" stroke="#999" strokeWidth="2" strokeLinecap="round" strokeLinejoin="round"></path>
      </g>
    </svg>
  );
}

export default SearchIcon; -->
<svg xmlns="http://www.w3.org/2000/svg" viewBox="0 0 24 24" width="30" height="30">
  <path d="M14.9536 14.9458L21 21M17 10C17 13.866 13.866 17 10 17C6.13401 17 3 13.866 3 10C3 6.13401 6.13401 3 10 3C13.866 3 17 6.13401 17 10Z" stroke="#999" strokeWidth="2" strokeLinecap="round" strokeLinejoin="round"></path>
</svg>
