<svg xmlns="http://www.w3.org/2000/svg" enable-background="new 0 0 52 52" viewBox="0 0 52 52" id="waste"><path fill="#8effa7" d="M4.63084,15.07533h0.56346l3.28488,28.79646h35.02325l3.28494-28.79646h0.5739
					c1.45039,0,2.62952-1.17914,2.62952-2.64003V9.13793H1.99081v3.29736C1.99081,13.89619,3.16994,15.07533,4.63084,15.07533z" class="color8e9aff svgShape"></path><path d="M49.98908,9.14055v3.28998c0,1.47003-1.17999,2.64001-2.63,2.64001h-0.56995l-3.29004,28.79999H8.47913l-0.67004-5.87
			h9.26001c12.02002,0,22.13001-9.02002,23.48999-20.96997l0.89001-7.83002h0.58002c0.20001,0,0.39001-0.02002,0.57001-0.06
			H49.98908z" opacity=".05" fill="#000000" class="color000000 svgShape"></path><path fill="#59ff7d" d="M49.98908,9.14055h-48l2.17004-4.38c0.44995-0.91998,1.38995-1.5,2.41998-1.5h38.83002
			c1.02997,0,1.96997,0.59003,2.41998,1.51001L49.98908,9.14055z" class="colorff5975 svgShape"></path><path d="M49.98908,9.14055h-48L3.1391,6.81053h36.39001c1.76001,0,3.03998-1.44,3.03998-3.02997
			c0-0.17004-0.01001-0.35004-0.04999-0.52002h2.89001c1.02997,0,1.96997,0.59003,2.41998,1.51001L49.98908,9.14055z" opacity=".05" fill="#000000" class="color000000 svgShape"></path><circle cx="43.431" cy="42.807" r="5.932" fill="#c7c7c7" class="colorc7c7c7 svgShape"></circle><path d="M49.36744,42.81178c0,3.26686-2.65752,5.92439-5.93439,5.92439c-2.00811,0-3.7864-0.99906-4.85539-2.53764
					c0.94911,0.65941,2.10799,1.03905,3.35681,1.03905c3.27687,0,5.93438-2.65752,5.93438-5.92439
					c0-1.25882-0.38964-2.42769-1.05899-3.37681C48.35838,39.00539,49.36744,40.79367,49.36744,42.81178z" opacity=".05" fill="#000000" class="color000000 svgShape"></path><circle cx="43.431" cy="42.807" r="2.201" fill="#ffffff" class="colorffffff svgShape"></circle><path d="M45.63402,42.811c0,1.21312-0.98807,2.20113-2.20113,2.20113c-0.73371,0-1.37935-0.36196-1.78048-0.90979
					c0.36196,0.26415,0.81199,0.42065,1.29134,0.42065c1.21306,0,2.20113-0.98801,2.20113-2.20113
					c0-0.47935-0.1565-0.92932-0.42065-1.29128C45.27206,41.43166,45.63402,42.07729,45.63402,42.811z" opacity=".1" fill="#000000" class="color000000 svgShape"></path><g fill="#000000" class="color000000 svgShape"><circle cx="8.546" cy="42.807" r="5.932" fill="#c7c7c7" class="colorc7c7c7 svgShape"></circle><path d="M14.48245,42.81178c0,3.26686-2.65752,5.92439-5.93439,5.92439c-2.00811,0-3.78639-0.99906-4.85539-2.53764
					c0.94911,0.65941,2.10799,1.03905,3.35681,1.03905c3.27687,0,5.93439-2.65752,5.93439-5.92439
					c0-1.25882-0.38965-2.42769-1.059-3.37681C13.4734,39.00539,14.48245,40.79367,14.48245,42.81178z" opacity=".05" fill="#000000" class="color000000 svgShape"></path><path fill="#37ae51" d="M50.991,12.43507V9.23012c0.00287-0.03094,0.01807-0.05774,0.01807-0.08948
				c0-0.22705-0.07568-0.43652-0.20313-0.60449l-2.07861-4.20459c-0.61475-1.25781-1.91748-2.0708-3.31836-2.0708H6.56913
				c-1.40088,0-2.70361,0.81299-3.31641,2.06641c-1.99667,4.14148-1.23627,2.2886-2.26172,4.81055v0.04095
				c0.00018,0.005-0.00024,0.00983,0,0.01477v3.24164c0,1.89551,1.45654,3.45752,3.30908,3.62549l0.52216,4.57721L2.9412,19.98635
				c-0.5249-0.18164-1.0918,0.09619-1.27197,0.61768c-0.18066,0.52197,0.0957,1.09131,0.61768,1.27197l2.78668,0.96503
				l1.51947,13.31933c-2.87353,0.84589-4.979,3.50305-4.979,6.64679c0,3.82227,3.10986,6.93213,6.93213,6.93213
				c3.10358,0,5.73688-2.05048,6.61755-4.86768h21.64966c0.88068,2.8172,3.51398,4.86768,6.61755,4.86768
				c3.82227,0,6.93164-3.10986,6.93164-6.93213c0-3.14215-2.10297-5.79846-4.97424-6.64569l1.51959-13.32031l2.78668-0.96515
				c0.52197-0.18066,0.79834-0.75,0.61768-1.27197c-0.18018-0.52148-0.75049-0.79932-1.27197-0.61768l-1.88098,0.65149
				l0.52209-4.57678C49.53349,15.89797,50.991,14.334,50.991,12.43507z M5.04765,5.20949
				c0.28174-0.57617,0.87891-0.94873,1.52148-0.94873h38.83984c0.64258,0,1.23975,0.37256,1.52344,0.95313l1.44531,2.92383H3.60038
				L5.04765,5.20949z M8.54618,47.73927c-2.71973,0-4.93213-2.2124-4.93213-4.93213c0-2.71924,2.2124-4.93164,4.93213-4.93164
				c2.71924,0,4.93164,2.2124,4.93164,4.93164C13.47782,45.52687,11.26542,47.73927,8.54618,47.73927z M48.36259,42.80714
				c0,2.71973-2.2124,4.93213-4.93164,4.93213s-4.93164-2.2124-4.93164-4.93213c0-2.71924,2.2124-4.93164,4.93164-4.93164
				S48.36259,40.08791,48.36259,42.80714z M46.78739,14.07521c-0.5083,0-0.93604,0.38135-0.99365,0.88672l-2.38605,20.91473
				c-3.81146,0.01282-6.90839,3.11609-6.90839,6.93048c0,0.02173,0.00305,0.04272,0.00323,0.06445H15.47459
				c0.00018-0.02173,0.00323-0.04272,0.00323-0.06445c0-3.81293-3.0946-6.9151-6.90399-6.93024L6.18778,14.96193
				c-0.05762-0.50537-0.48535-0.88672-0.99365-0.88672H4.63065c-0.9043,0-1.63965-0.73584-1.63965-1.64014v-2.29443h46v2.29443
				c0,0.9043-0.73096,1.64014-1.62988,1.64014H46.78739z" class="color293c66 svgShape"></path><circle cx="8.546" cy="42.807" r="2.201" fill="#ffffff" class="colorffffff svgShape"></circle><path d="M10.74903,42.811c0,1.21312-0.98807,2.20113-2.20113,2.20113c-0.73371,0-1.37935-0.36196-1.78048-0.90979
					C7.12938,44.3665,7.57941,44.523,8.05876,44.523c1.21306,0,2.20113-0.98801,2.20113-2.20113
					c0-0.47935-0.1565-0.92932-0.42065-1.29128C10.38707,41.43166,10.74903,42.07729,10.74903,42.811z" opacity=".1" fill="#000000" class="color000000 svgShape"></path></g><g fill="#000000" class="color000000 svgShape"><path fill="#ffffff" d="M23.90073 35.48936l-6.6728.11186-.03889.00014c-1.01018.0037-1.896-.51763-2.38491-1.39974-.49871-.90152-.46372-1.95072.09654-2.80756l2.52127-3.80717-1.42161-.94676c-.27265-.17384-.40979-.48417-.36237-.79513.04747-.31101.26025-.55463.56108-.63345l4.48251-1.40542c.20372-.07847.44666-.05019.65113.07534.21416.13516.35095.34839.38095.59111l.46401 4.68021c.03997.31069-.10459.61234-.37599.77844-.27138.15638-.60169.14793-.86465-.03567l-1.4313-.937-2.50188 3.80716c-.02893.04866-.06761.10708-.00884.22342.03905.05814.08778.10651.20434.10609l6.62425-.11163c-.20283.32125-.3181.67134-.33617 1.03086C23.45043 34.54883 23.60781 35.07276 23.90073 35.48936zM33.45248 20.49568l-.96426 4.58827c-.05735.25277-.22175.44765-.43509.55527-.11634.0587-.23283.07858-.34938.079-.11656.00043-.23318-.01859-.34025-.06676l-4.29058-1.88817c-.28209-.11553-.46765-.38679-.47851-.69759-.01086-.3108.15322-.59313.42469-.73979l1.53183-.78267-2.06441-4.05268c-.0782-.14544-.29196-.15438-.37884.00139l-3.22238 5.97583c-.18577-.32955-.45881-.61028-.78985-.83246-.36017-.21235-.76855-.32741-1.17656-.32592-.08739.00032-.17484.00064-.26215.02035l3.25134-6.03427c.48236-.90511 1.41299-1.40392 2.40371-1.42693 1.03942.01558 1.93506.56598 2.41436 1.4773l2.05474 4.05271 1.5222-.77291c.28114-.14676.61147-.11879.86473.07456C33.4211 19.89356 33.52904 20.19428 33.45248 20.49568zM37.12746 34.63479c-.53102.87612-1.47147 1.36524-2.48186 1.31065l-4.53719-.26507-.11032 1.70026c.0011.30111-.18246.57373-.47344.70108-.10669.03928-.21345.05906-.32029.05945-.19428.00071-.38881-.06658-.54473-.21168l-3.46-3.17339c-.17541-.15475-.27337-.3875-.25481-.63041.00874-.25259.14392-.47654.34743-.61322l3.77819-2.74331c.27133-.18555.6112-.20624.88378-.05185.26285.15449.40959.44534.39134.75625l-.09094 1.7002 4.53719.26507c.136-.0005.18427-.07834.20365-.09786.03855-.07787.0383-.14586-.01058-.23307l-3.59641-5.95094c.10687.00933.2138.01866.32063.01827.35939-.00131.69905-.08028.9996-.23677.39757-.19574.72665-.50778.94872-.88743l3.46949 5.77657C37.66432 32.69979 37.65848 33.75861 37.12746 34.63479z" class="colorffffff svgShape"></path></g></svg>